<?xml version="1.0" encoding="utf-8"?>
<!-- Generator: Adobe Illustrator 25.4.1, SVG Export Plug-In . SVG Version: 6.00 Build 0)  -->
<svg version="1.1" id="图层_1" xmlns="http://www.w3.org/2000/svg" xmlns:xlink="http://www.w3.org/1999/xlink" x="0px" y="0px"
	 viewBox="0 0 20 20" style="enable-background:new 0 0 20 20;" xml:space="preserve">
<path d="M10.9,0.1l0,2.8c3.3,0.4,5.8,3,6.2,6.2h2.8v1.8l-2.8,0c-0.4,3.3-3,5.8-6.2,6.2l0,2.8H9.1v-2.8c-3.3-0.4-5.8-3-6.2-6.2
	l-2.8,0V9.1h2.8c0.4-3.3,3-5.8,6.2-6.2V0.1H10.9z M10,4.6C7,4.6,4.6,7,4.6,10S7,15.4,10,15.4s5.4-2.4,5.4-5.4S13,4.6,10,4.6z
	 M10,8.2c1,0,1.8,0.8,1.8,1.8c0,1-0.8,1.8-1.8,1.8S8.2,11,8.2,10C8.2,9,9,8.2,10,8.2z"/>
</svg>
