<?xml version="1.0" encoding="utf-8"?>
<!-- Generator: Adobe Illustrator 25.4.1, SVG Export Plug-In . SVG Version: 6.00 Build 0)  -->
<svg version="1.1" id="图层_1" xmlns="http://www.w3.org/2000/svg" xmlns:xlink="http://www.w3.org/1999/xlink" x="0px" y="0px"
	 viewBox="0 0 20.7 23.6" style="enable-background:new 0 0 20.7 23.6;" xml:space="preserve">
<path d="M18.8,5.4c-0.4,0-0.7,0.1-1,0.4c-0.3,0.3-0.4,0.6-0.4,1v5.6c0,0.3-0.2,0.4-0.4,0.4c-0.1,0-0.2,0-0.3-0.1
	c-0.1-0.1-0.1-0.2-0.1-0.3V3.1c0-0.4-0.1-0.7-0.4-1c-0.3-0.3-0.6-0.4-1-0.4c-0.4,0-0.7,0.1-1,0.4c-0.3,0.3-0.4,0.6-0.4,1v8
	c0,0.1,0,0.2-0.1,0.3c-0.1,0.1-0.2,0.1-0.3,0.1s-0.2,0-0.3-0.1c-0.1-0.1-0.1-0.2-0.1-0.3V1.9c0-0.4-0.1-0.7-0.4-1
	c-0.3-0.3-0.6-0.4-1-0.4c-0.4,0-0.7,0.1-1,0.4c-0.3,0.3-0.4,0.6-0.4,1v9.3c0,0.3-0.2,0.4-0.4,0.4c-0.1,0-0.2,0-0.3-0.1
	c-0.1-0.1-0.1-0.2-0.1-0.3v-8c0-0.4-0.1-0.7-0.4-1s-0.6-0.4-1-0.4s-0.7,0.1-1,0.4c-0.3,0.3-0.4,0.6-0.4,1v9.7c0,0.4-0.1,0.7-0.2,0.9
	c-0.1,0.2-0.2,0.3-0.4,0.4c-0.2,0-0.4,0-0.5-0.1c-0.2-0.1-0.4-0.4-0.6-0.7l-2-3.4C2.7,9.5,2.4,9.3,2.1,9.2c-0.3-0.1-0.7,0-1,0.1
	c-0.3,0.2-0.5,0.5-0.6,0.9c-0.1,0.4-0.1,0.8,0.1,1.1s0.2,0.3,0.2,0.3l0.5,1.1L3.8,18c0.6,1.2,1.2,2.2,1.8,3c0.5,0.6,1,1.1,1.5,1.5
	c0.3,0.3,0.7,0.4,1,0.6c0.2,0.1,0.3,0.1,0.4,0.1h6.1c0.9,0,1.8-0.3,2.5-1c0.6-0.5,1.1-1.2,1.5-2.1c1-2.1,1.6-4.8,1.6-8.2V6.8
	c0-0.4-0.1-0.7-0.4-1C19.6,5.6,19.2,5.4,18.8,5.4L18.8,5.4z"/>
</svg>
