<?xml version="1.0" encoding="utf-8"?>
<!-- Generator: Adobe Illustrator 25.4.1, SVG Export Plug-In . SVG Version: 6.00 Build 0)  -->
<svg version="1.1" id="图层_2_00000155839339239633764670000013403684835359861940_"
	 xmlns="http://www.w3.org/2000/svg" xmlns:xlink="http://www.w3.org/1999/xlink" x="0px" y="0px" viewBox="0 0 24 24"
	 style="enable-background:new 0 0 24 24;" xml:space="preserve">
<path d="M13.6,12c0,0.9-0.7,1.6-1.6,1.6s-1.6-0.7-1.6-1.6s0.7-1.6,1.6-1.6S13.6,11.1,13.6,12z M21,10.4v3.3h-2.1
	c-0.6,2.6-2.7,4.7-5.3,5.3V21h-3.3v-2.1c-2.6-0.6-4.7-2.7-5.3-5.3H3v-3.3h2.1c0.6-2.6,2.7-4.7,5.3-5.3V3h3.3v2.1
	c2.6,0.6,4.7,2.7,5.3,5.3H21z M16.7,12c0-2.6-2.1-4.7-4.7-4.7S7.3,9.4,7.3,12s2.1,4.7,4.7,4.7S16.7,14.6,16.7,12z"/>
</svg>
