<?xml version="1.0" encoding="utf-8"?>
<!-- Generator: Adobe Illustrator 25.4.1, SVG Export Plug-In . SVG Version: 6.00 Build 0)  -->
<svg version="1.1" id="图层_2" xmlns="http://www.w3.org/2000/svg" xmlns:xlink="http://www.w3.org/1999/xlink" x="0px" y="0px"
	 viewBox="0 0 24 24" style="enable-background:new 0 0 24 24;" xml:space="preserve">
<path d="M13.99,12c0,1.1-0.89,1.99-1.99,1.99S10.01,13.1,10.01,12s0.89-1.99,1.99-1.99S13.99,10.9,13.99,12z M23.06,10.01v3.98
	h-2.61c-0.75,3.2-3.26,5.71-6.46,6.46v2.61h-3.98v-2.61c-3.2-0.75-5.71-3.26-6.46-6.46H0.94v-3.98h2.61
	c0.75-3.2,3.26-5.71,6.46-6.46V0.94h3.98v2.61c3.2,0.75,5.71,3.26,6.46,6.46H23.06z M17.8,12c0-3.21-2.6-5.8-5.8-5.8
	S6.2,8.79,6.2,12s2.6,5.8,5.8,5.8S17.8,15.21,17.8,12z"/>
</svg>
