<?xml version="1.0" encoding="utf-8"?>
<!-- Generator: Adobe Illustrator 25.4.1, SVG Export Plug-In . SVG Version: 6.00 Build 0)  -->
<svg version="1.1" id="图层_2" xmlns="http://www.w3.org/2000/svg" xmlns:xlink="http://www.w3.org/1999/xlink" x="0px" y="0px"
	 viewBox="0 0 24 24" style="enable-background:new 0 0 24 24;" xml:space="preserve">
<path d="M14.16,12c0,1.19-0.97,2.16-2.16,2.16S9.84,13.19,9.84,12S10.81,9.84,12,9.84S14.16,10.81,14.16,12z M24,9.84v4.32h-2.83
	c-0.81,3.47-3.54,6.19-7.01,7.01V24H9.84v-2.83c-3.47-0.81-6.19-3.54-7.01-7.01H0V9.84h2.83c0.81-3.47,3.54-6.19,7.01-7.01V0h4.32
	v2.83c3.47,0.81,6.19,3.54,7.01,7.01H24z M18.3,12c0-3.48-2.82-6.3-6.3-6.3S5.7,8.52,5.7,12s2.82,6.3,6.3,6.3S18.3,15.48,18.3,12z"
	/>
</svg>
